<svg xmlns="http://www.w3.org/2000/svg" width="177" height="99" viewBox="0 0 177 99"><g id="btn" transform="translate(-1103)"><path id="&#x30D1;&#x30B9;_3414" data-name="&#x30D1;&#x30B9; 3414" d="M0,0H177V99H0Z" transform="translate(1103)" fill="#dc0461"></path><path id="&#x30D1;&#x30B9;_3416" data-name="&#x30D1;&#x30B9; 3416" d="M11.376-8.16H10.16v-2.048h1.216Zm0,3.728H10.16V-6.464h1.216ZM4.656-6.464H5.808v2.032H4.656Zm3.92,0v2.032H7.392V-6.464ZM7.392-8.16v-2.048H8.576V-8.16ZM4.656-10.208H5.808V-8.16H4.656ZM2.976-8.16H.832v1.7H2.976v2.032h-1.9v1.7h13.9v-1.7H13.12V-6.464H15.2v-1.7H13.12v-2.048h1.5v-1.68h-9.6a8.613,8.613,0,0,0,.624-1.12l-1.856-.544A9.839,9.839,0,0,1,.48-9.728,17.621,17.621,0,0,1,2.032-8.48a11,11,0,0,0,.944-.832Zm-.5,9.568A8.756,8.756,0,0,0,4.3-1.952L2.464-2.4A7.884,7.884,0,0,1,.672.672ZM5.328-1.84a20.311,20.311,0,0,1,.3,3.056L7.488.944a20.931,20.931,0,0,0-.4-2.992ZM8.5-1.808a17.05,17.05,0,0,1,.816,3.04l1.9-.368a17.831,17.831,0,0,0-.928-2.976Zm3.168-.08a20.608,20.608,0,0,1,1.888,3.28L15.5.736a21.7,21.7,0,0,0-2.016-3.2ZM27.5-10.752a12.024,12.024,0,0,0-2.544-1.936l-.912,1.28a12.873,12.873,0,0,1,2.48,2.08Zm-4.192,3.36a13.531,13.531,0,0,1,2.624,2l.96-1.52a13.362,13.362,0,0,0-2.688-1.84Zm-1.44-5.28a29.762,29.762,0,0,1-.88,3.744l1.2.336c.4-.928.864-2.448,1.28-3.728Zm-3.1,3.744a16.042,16.042,0,0,0-.816-3.664l-1.328.352a15.822,15.822,0,0,1,.72,3.7Zm4.368,5.264c-.336-.448-1.856-2.24-2.32-2.7V-6.48h2.368V-8.256H20.816v-5.232h-1.76v5.232H16.64V-6.48h1.824a14.812,14.812,0,0,1-2.112,4.144,11.307,11.307,0,0,1,.864,1.968A16.421,16.421,0,0,0,19.056-4.3V1.344h1.76V-4.272a21.373,21.373,0,0,1,1.152,2.08ZM31.6-3.3l-.288-1.776-1.632.3v-8.8H27.888v9.12L23.136-3.6l.288,1.776,4.464-.8v4H29.68v-4.32Zm3.968-10.192A16.85,16.85,0,0,1,32.256-7.5,11.4,11.4,0,0,1,33.312-5.52c.32-.384.656-.816.976-1.248V1.36H36.1V-9.856a28.021,28.021,0,0,0,1.28-3.088Zm7.344,10.5V-7.168A23.4,23.4,0,0,0,44.88-2.992Zm-3.808,0a20.791,20.791,0,0,0,1.952-4.064v4.064Zm8.224-5.9V-10.7H42.912v-2.768H41.056V-10.7H37.008V-8.9H40.16a16.361,16.361,0,0,1-3.984,6.5,7.755,7.755,0,0,1,1.36,1.44A11.11,11.11,0,0,0,38.96-2.768V-1.3h2.1V1.28h1.856V-1.3h2.144V-2.7a13.408,13.408,0,0,0,1.28,1.7A7.789,7.789,0,0,1,47.76-2.48a17.285,17.285,0,0,1-3.9-6.416ZM49.312.5a7.615,7.615,0,0,0,.9-3.84l-1.056-.208a7.434,7.434,0,0,1-.8,3.52Zm1.04-3.712a18.939,18.939,0,0,1,.112,2.96l.864-.112a15.669,15.669,0,0,0-.16-2.928ZM51.44-3.3a12.036,12.036,0,0,1,.5,2.592l.832-.176a13.179,13.179,0,0,0-.528-2.576Zm2.016-2.416V-6.7h1.392v-1.44H53.456V-9.1h1.392v-.368a8.789,8.789,0,0,1,.752,1.36,9.412,9.412,0,0,0,1.232-.912v.864h1.632V-7.3h-2.72v4.224h2.272A5.649,5.649,0,0,1,55.072-.064a39.3,39.3,0,0,0,.384-5.024c.016-.208.016-.624.016-.624ZM50.848-6.7h1.088v.992H50.848Zm1.088-2.4v.96H50.848V-9.1Zm0-2.32v.88H50.848v-.88Zm5.52,1.808a11.954,11.954,0,0,0,1.76-2.272,11.357,11.357,0,0,0,1.872,2.272Zm3.936,3.7v1.472H60.08a14.031,14.031,0,0,0,.064-1.408V-5.92ZM57.3-4.448V-5.92h1.168v.048a8.637,8.637,0,0,1-.1,1.424Zm5.712,1.376V-7.3H60.144V-8.16h1.6v-.88a7.27,7.27,0,0,0,1.04.736,11.08,11.08,0,0,1,.944-1.632,10.331,10.331,0,0,1-3.76-3.6H58.336A10.214,10.214,0,0,1,54.848-9.7v-.848H53.456v-.88h1.712V-12.96H49.28v8.72h4.576c-.032.688-.064,1.28-.1,1.76a9.237,9.237,0,0,0-.544-1.3l-.752.256a9.376,9.376,0,0,1,.72,2.064l.512-.192a3.722,3.722,0,0,1-.272,1.392.478.478,0,0,1-.432.208,9.065,9.065,0,0,1-.976-.064A3.655,3.655,0,0,1,52.4,1.36a6.227,6.227,0,0,0,1.408-.048,1.27,1.27,0,0,0,.96-.56A1.3,1.3,0,0,0,54.976.3a6.366,6.366,0,0,1,.928,1.12,7.027,7.027,0,0,0,3.552-3.408,6.934,6.934,0,0,0,2.992,3.36,7.4,7.4,0,0,1,1.2-1.5,6.021,6.021,0,0,1-2.992-2.944Zm8.16-8.112v2.048a42.943,42.943,0,0,0,6.88,0V-11.2A32.9,32.9,0,0,1,71.168-11.184Zm1.28,6.832-1.84-.176a9.775,9.775,0,0,0-.272,2.08c0,1.648,1.328,2.624,4.08,2.624a22.659,22.659,0,0,0,4.128-.3l-.032-2.16a18.914,18.914,0,0,1-4.016.416c-1.632,0-2.24-.432-2.24-1.136A5.431,5.431,0,0,1,72.448-4.352Zm-3.744-7.9-2.24-.192c-.016.512-.112,1.12-.16,1.568a44.615,44.615,0,0,0-.672,6.336A20.453,20.453,0,0,0,66.256.688L68.112.56C68.1.336,68.08.08,68.08-.1a4.828,4.828,0,0,1,.08-.752c.176-.848.7-2.592,1.152-3.92l-.992-.784c-.224.528-.48,1.088-.72,1.632a7.72,7.72,0,0,1-.064-1.04,42.437,42.437,0,0,1,.768-5.872C68.368-11.12,68.576-11.92,68.7-12.256ZM88.96-4.544v-1.7h3.552v1.7Zm-5.472,0v-1.7H86.96v1.7ZM86.96-9.6v1.616H83.488V-9.6Zm5.552,0v1.616H88.96V-9.6ZM88.96-11.424v-2.144h-2v2.144H81.584v9.552h1.9V-2.72H86.96v4.1h2v-4.1h3.552v.768H94.5v-9.472Zm12.976-1.264L99.36-12.72a10.205,10.205,0,0,1,.208,2.16c0,1.376-.16,5.584-.16,7.728,0,2.736,1.7,3.888,4.32,3.888a8.282,8.282,0,0,0,6.944-3.68l-1.456-1.76a6.4,6.4,0,0,1-5.472,3.264,1.934,1.934,0,0,1-2.208-2.144c0-1.984.128-5.568.192-7.3C101.76-11.2,101.84-12.016,101.936-12.688Zm18.88,3.12c-.5,3.056-1.728,5.44-3.968,6.768a10.5,10.5,0,0,1,1.472,1.44,10.274,10.274,0,0,0,3.76-5.264,8.835,8.835,0,0,0,3.84,5.248,8.526,8.526,0,0,1,1.488-1.456C124.08-4.5,123.12-8.352,122.88-12.88h-4.4v1.792h2.784c.048.544.112,1.088.176,1.616Zm-3.968-1.2a12.812,12.812,0,0,0-2.672-2.416l-1.408,1.152A12.108,12.108,0,0,1,115.344-9.5Zm-.4,3.424h-3.7V-5.6h1.84v3.376A21.013,21.013,0,0,1,112.4-.752l.928,1.984c.88-.672,1.584-1.3,2.288-1.92,1.04,1.248,2.352,1.7,4.32,1.776,1.9.08,5.12.048,7.04-.048a9.965,9.965,0,0,1,.592-1.92c-2.128.16-5.728.208-7.6.128-1.664-.064-2.864-.5-3.52-1.568Zm17.952-5.6h-2.24a7.713,7.713,0,0,1,.16,2.016v.128h-.48a18.974,18.974,0,0,1-2.576-.208l.112,1.872c1.056.1,1.92.128,2.608.128h.336V-7.92h-.064a3.047,3.047,0,0,0-2.96,3.312c0,2.048,1.184,2.88,2.352,2.88a1.293,1.293,0,0,0,.256-.016v.336c0,1.12.16,2.3,3.888,2.3a14.687,14.687,0,0,0,3.472-.352,2.768,2.768,0,0,0,2.368-2.912c.048-.656.032-1.04.032-1.872l-2.224-.672a12.6,12.6,0,0,1,.128,1.984,1.5,1.5,0,0,1-1.184,1.6,9.518,9.518,0,0,1-2.448.288c-1.888,0-2.064-.352-2.064-1.04v-.64a4.285,4.285,0,0,0,.832-2.7,2.719,2.719,0,0,0-.464-1.616v-2.1a20.419,20.419,0,0,0,2.864-.448V-11.5a18.837,18.837,0,0,1-2.864.56A9.733,9.733,0,0,1,134.4-12.944Zm5.376,1.472-1.344,1.328a22.8,22.8,0,0,1,3.3,3.2l1.44-1.472A19.347,19.347,0,0,0,139.776-11.472Zm-7.92,7.824c-.464,0-.88-.4-.88-1.1,0-.944.512-1.568,1.152-1.568.448,0,.752.368.752.992C132.88-4.432,132.592-3.648,131.856-3.648Z" transform="translate(1121 71)" fill="#fff"></path><path id="&#x30D1;&#x30B9;_3415" data-name="&#x30D1;&#x30B9; 3415" d="M18.088-18.129a1.909,1.909,0,0,1,2.092.1,1.833,1.833,0,0,1,.861,1.907L18.58-.205A1.879,1.879,0,0,1,17.6,1.189a1.943,1.943,0,0,1-.943.246,2.448,2.448,0,0,1-.779-.123L11.279-.574,9.516,1.846A2.037,2.037,0,0,1,8.1,2.625a1.908,1.908,0,0,1-1.5-.492A1.873,1.873,0,0,1,5.947.656V-2.789L1.271-4.758A1.809,1.809,0,0,1,.041-6.439a1.842,1.842,0,0,1,.984-1.846ZM7.916.656,9.434-1.395,7.916-2.01ZM16.652-.533l2.42-15.873L2.01-6.562l4.43,1.846L15.094-12.3a.607.607,0,0,1,.882.021.61.61,0,0,1,.1.882L10.336-3.117Z" transform="translate(1182 40)" fill="#fff"></path></g></svg>